<?xml version="1.0" standalone="no"?><!DOCTYPE svg PUBLIC "-//W3C//DTD SVG 1.1//EN" "http://www.w3.org/Graphics/SVG/1.1/DTD/svg11.dtd"><svg t="1606476984300" class="icon" viewBox="0 0 1024 1024" version="1.1" xmlns="http://www.w3.org/2000/svg" p-id="3018" xmlns:xlink="http://www.w3.org/1999/xlink" width="200" height="200"><defs><style type="text/css"></style></defs><path d="M782.036 447.65h-172.29c66.761-246.563-45.998-259.156-45.998-259.156-47.791 0-37.884 37.791-41.498 44.092 0 120.58-128.074 215.065-128.074 215.065v341.946c0 33.754 45.998 45.91 64.042 45.91h258.866c24.363 0 44.202-63.892 44.202-63.892 64.043-217.77 64.043-282.564 64.043-282.564 0.001-44.993-43.293-41.398-43.293-41.398v0 0zM782.036 447.65z" fill="#36BBFF" p-id="3019"></path><path d="M323.472 447.763h-103.167c-21.306 0-21.635 20.927-21.635 20.927l21.306 344.864c0 21.95 21.987 21.95 21.987 21.95h89.291c18.602 0 18.437-14.52 18.437-14.52v-347.069c0-26.486-26.221-26.151-26.221-26.151v0 0zM323.472 447.763z" fill="#36BBFF" p-id="3020"></path></svg>